<svg xmlns="http://www.w3.org/2000/svg" width="30" height="30" viewBox="0 0 30 30">
    <g fill="none" fill-rule="evenodd" stroke="#FFF" stroke-linecap="round" stroke-linejoin="round" stroke-width="2" transform="translate(6 6)">
        <circle cx="9" cy="9" r="2.455"/>
        <path d="M15.055 11.455a1.35 1.35 0 0 0 .27 1.489l.049.049a1.636 1.636 0 1 1-2.316 2.315l-.049-.049a1.35 1.35 0 0 0-1.489-.27 1.35 1.35 0 0 0-.818 1.236v.139a1.636 1.636 0 0 1-3.273 0v-.074a1.35 1.35 0 0 0-.884-1.235 1.35 1.35 0 0 0-1.489.27l-.049.049a1.636 1.636 0 1 1-2.315-2.316l.049-.049a1.35 1.35 0 0 0 .27-1.489 1.35 1.35 0 0 0-1.236-.818h-.139a1.636 1.636 0 0 1 0-3.273h.074a1.35 1.35 0 0 0 1.235-.884 1.35 1.35 0 0 0-.27-1.489l-.049-.049a1.636 1.636 0 1 1 2.316-2.315l.049.049a1.35 1.35 0 0 0 1.489.27h.065a1.35 1.35 0 0 0 .819-1.236v-.139a1.636 1.636 0 0 1 3.272 0v.074a1.35 1.35 0 0 0 .819 1.235 1.35 1.35 0 0 0 1.489-.27l.049-.049a1.636 1.636 0 1 1 2.315 2.316l-.049.049a1.35 1.35 0 0 0-.27 1.489v.065a1.35 1.35 0 0 0 1.236.819h.139a1.636 1.636 0 0 1 0 3.272h-.074a1.35 1.35 0 0 0-1.235.819z"/>
    </g>
</svg>
